<svg xmlns="http://www.w3.org/2000/svg" xmlns:xlink="http://www.w3.org/1999/xlink" viewBox="0 0 192 192"><defs><style>.cls-1,.cls-9{fill:none;}.cls-2{fill:#e0e0e0;}.cls-3{fill:#fff;fill-opacity:0.2;}.cls-4{fill:#212121;fill-opacity:0.1;}.cls-5{fill:url(#Dégradé_sans_nom_6);}.cls-6{font-size:39.16px;fill:#ff5722;stroke:#ffab40;stroke-miterlimit:10;}.cls-6,.cls-7,.cls-8,.cls-9{font-family:MyriadPro-Regular, Myriad Pro;}.cls-7,.cls-8,.cls-9{font-size:42.5px;}.cls-7{fill:#fff176;}.cls-8{fill:#ffc400;stroke:#ffe0b2;stroke-width:0.25px;}.cls-9{stroke:#ff6f00;stroke-linecap:round;stroke-linejoin:round;stroke-width:0.5px;}.cls-10{fill:url(#radial-gradient);}</style><radialGradient id="Dégradé_sans_nom_6" cx="96" cy="95.71" r="41.81" gradientUnits="userSpaceOnUse"><stop offset="0" stop-color="#f8c642"/><stop offset="0.2" stop-color="#f6b744"/><stop offset="0.99" stop-color="#ec7d4c"/></radialGradient><radialGradient id="radial-gradient" cx="6.53" cy="24.39" r="228.42" gradientTransform="translate(-2.63 -22.63) scale(1.13 1.13)" gradientUnits="userSpaceOnUse"><stop offset="0" stop-color="#fff" stop-opacity="0.1"/><stop offset="1" stop-color="#fff" stop-opacity="0"/></radialGradient><symbol id="material_product_icon_border" data-name="material_product_icon_border" viewBox="0 0 192 192"><rect class="cls-1" width="192" height="192"/></symbol></defs><g id="back"><rect class="cls-2" width="192" height="192" rx="12"/></g><g id="back_edge" data-name="back, edge"><path class="cls-3" d="M176.84,0H15.16A15.2,15.2,0,0,0,0,15.16v1.26A15.2,15.2,0,0,1,15.16,1.26H176.84A15.2,15.2,0,0,1,192,16.42V15.16A15.2,15.2,0,0,0,176.84,0Z"/><path class="cls-4" d="M176.84,192H15.16C6.82,192,0,186.6,0,180v-1c0,6.6,6.82,12,15.16,12H176.84c8.34,0,15.16-5.4,15.16-12v1C192,186.6,185.18,192,176.84,192Z"/></g><g id="Timer"><path class="cls-1" d="M46,46H146V146H46Z"/><path class="cls-5" d="M137.67,69.83,118.5,53.75l-5.37,6.37,19.16,16.09Zm-58.84-9.7L73.5,53.75l-19.17,16,5.38,6.38Zm19.25,19.2H91.83v25l19.8,11.88,3.12-5.13-16.67-9.87ZM96,62.67a37.5,37.5,0,1,0,37.5,37.5A37.5,37.5,0,0,0,96,62.67Zm0,66.66a29.17,29.17,0,1,1,29.17-29.16A29.15,29.15,0,0,1,96,129.33Z"/></g><g id="Tabata"><text class="cls-6" transform="translate(30.71 147.27) rotate(42.26) scale(1.03 1)">T</text><text class="cls-6" transform="translate(45.98 161.44) rotate(26.74) scale(1.03 1)">A</text><text class="cls-6" transform="matrix(1.02, 0.15, -0.14, 0.99, 72.42, 173.7)">B</text><text class="cls-6" transform="matrix(1.02, -0.17, 0.17, 0.99, 98.49, 177.06)">A</text><text class="cls-6" transform="translate(123.32 172.46) rotate(-24.89) scale(1.03 1)">T</text><text class="cls-6" transform="matrix(0.79, -0.67, 0.65, 0.76, 142.33, 163.89)">A</text></g><g id="Easy"><text class="cls-7" transform="matrix(0.83, -0.61, 0.59, 0.81, 49.75, 55.36)">E</text><text class="cls-7" transform="matrix(0.93, -0.43, 0.42, 0.91, 64.91, 44.63)"> </text><text class="cls-7" transform="translate(69.92 40.8) rotate(-11.63) scale(1.02 1)">A</text><text class="cls-7" transform="matrix(1.02, 0.02, -0.02, 1, 92.94, 36.71)"> </text><text class="cls-7" transform="translate(99.54 36) rotate(12.53) scale(1.02 1)">S</text><text class="cls-7" transform="matrix(0.94, 0.41, -0.4, 0.91, 117.65, 40.36)"> </text><text class="cls-7" transform="matrix(0.84, 0.58, -0.57, 0.82, 122.37, 41.25)">Y</text><text class="cls-8" transform="matrix(0.83, -0.61, 0.59, 0.81, 49.75, 55.36)">E</text><text class="cls-8" transform="matrix(0.93, -0.43, 0.42, 0.91, 64.91, 44.63)"> </text><text class="cls-8" transform="translate(69.92 40.8) rotate(-11.63) scale(1.02 1)">A</text><text class="cls-8" transform="matrix(1.02, 0.02, -0.02, 1, 92.94, 36.71)"> </text><text class="cls-8" transform="translate(99.54 36) rotate(12.53) scale(1.02 1)">S</text><text class="cls-8" transform="matrix(0.94, 0.41, -0.4, 0.91, 117.65, 40.36)"> </text><text class="cls-8" transform="matrix(0.84, 0.58, -0.57, 0.82, 122.37, 41.25)">Y</text><text class="cls-9" transform="matrix(0.83, -0.61, 0.59, 0.81, 49.75, 55.36)">E</text><text class="cls-9" transform="matrix(0.93, -0.43, 0.42, 0.91, 64.91, 44.63)"> </text><text class="cls-9" transform="translate(69.92 40.8) rotate(-11.63) scale(1.02 1)">A</text><text class="cls-9" transform="matrix(1.02, 0.02, -0.02, 1, 92.94, 36.71)"> </text><text class="cls-9" transform="translate(99.54 36) rotate(12.53) scale(1.02 1)">S</text><text class="cls-9" transform="matrix(0.94, 0.41, -0.4, 0.91, 117.65, 40.36)"> </text><text class="cls-9" transform="matrix(0.84, 0.58, -0.57, 0.82, 122.37, 41.25)">Y</text></g><g id="finish"><rect class="cls-10" width="192" height="192" rx="12"/></g><g id="border"><use width="192" height="192" xlink:href="#material_product_icon_border"/></g></svg>